<svg width="100" height="100" viewBox="0 0 100 100" xmlns="http://www.w3.org/2000/svg">
  <defs>
    <linearGradient id="gradient1" x1="0%" y1="0%" x2="100%" y2="100%">
      <stop offset="0%" style="stop-color:#42a5f5;stop-opacity:1" />
      <stop offset="100%" style="stop-color:#1976d2;stop-opacity:1" />
    </linearGradient>
  </defs>
  
  <!-- Background Circle -->
  <circle cx="50" cy="50" r="45" fill="url(#gradient1)" stroke="#fff" stroke-width="3"/>
  
  <!-- Pet Paw Print -->
  <g fill="#ffffff">
    <!-- Main pad -->
    <ellipse cx="50" cy="55" rx="8" ry="12"/>
    
    <!-- Toe pads -->
    <ellipse cx="38" cy="45" rx="5" ry="7"/>
    <ellipse cx="46" cy="38" rx="5" ry="7"/>
    <ellipse cx="54" cy="38" rx="5" ry="7"/>
    <ellipse cx="62" cy="45" rx="5" ry="7"/>
  </g>
  
  <!-- Heart shape for care -->
  <path d="M50 75 C45 70, 35 65, 35 55 C35 50, 40 45, 45 45 C47 45, 49 47, 50 49 C51 47, 53 45, 55 45 C60 45, 65 50, 65 55 C65 65, 55 70, 50 75 Z" fill="#ff6b6b" opacity="0.8"/>
</svg>